<svg width="50" height="50" viewBox="0 0 50 50" fill="none" xmlns="http://www.w3.org/2000/svg">
<g clip-path="url(#clip0_4_3)">
<path d="M39.8148 25C39.8148 33.1874 33.1874 39.8148 25 39.8148V25H39.8148ZM25 10.1852V25H10.1852C10.1852 16.8126 16.8127 10.1852 25 10.1852Z" fill="#0166B1"/>
<path d="M25 10.1852C33.1874 10.1852 39.8148 16.8126 39.8148 25H25V10.1852ZM10.1852 25H25V39.8148C16.8126 39.8148 10.1852 33.1874 10.1852 25Z" fill="#C9D6DF"/>
<path d="M25 10.1852V10.9975C32.7203 10.9975 39.0025 17.2783 39.0025 25H39.8148C39.8148 16.8185 33.1815 10.1852 25 10.1852ZM25 39.0025C17.2797 39.0025 10.9975 32.7217 10.9975 25H10.1852C10.1852 33.1815 16.8185 39.8148 25 39.8148V39.0025ZM25 0C11.1933 0 0 11.1933 0 25C0 38.8067 11.1933 50 25 50C38.8067 50 50 38.8067 50 25C50 11.1933 38.8067 0 25 0ZM48.3743 25C48.3743 37.9086 37.9101 48.3743 25 48.3743C12.0899 48.3743 1.62571 37.9086 1.62571 25C1.62571 12.0914 12.0914 1.62571 25 1.62571C37.9086 1.62571 48.3743 12.0914 48.3743 25Z" fill="#C9D6DF"/>
<path d="M14.3164 12.9395C15.1153 12.1038 15.5676 11.1384 14.7687 10.2166C14.334 9.7164 13.6041 9.60701 12.9991 9.85349L12.9389 9.87682L12.958 9.82432C13.0476 9.5866 13.1048 8.82822 12.4543 8.30465C12.1371 8.04942 11.7391 7.95463 11.3367 7.99546C10.5863 8.0713 10.0092 8.58029 8.43782 10.3202C7.96348 10.8452 7.27327 11.6736 6.85914 12.2103L11.1752 16.2764C12.6055 14.7042 13.1885 14.1194 14.3164 12.9395ZM8.68453 11.9449C9.55391 10.889 10.4776 9.93078 10.8962 9.55159C11.0283 9.432 11.1722 9.31241 11.347 9.26574C11.6304 9.18845 11.9227 9.38825 11.9887 9.67702C12.0548 9.96724 11.8713 10.2429 11.6671 10.4704C11.2075 10.9852 9.5216 12.7368 9.5216 12.7368L8.68453 11.9449ZM10.3748 13.5375C10.3748 13.5375 12.0166 11.8136 12.5527 11.2623C12.7656 11.0436 12.9022 10.9108 13.049 10.8394C13.2385 10.7475 13.4455 10.7285 13.6306 10.851C13.8127 10.9721 13.8964 11.1806 13.8509 11.3877C13.7965 11.6342 13.5939 11.869 13.4264 12.0484C13.2003 12.289 11.253 14.3585 11.2501 14.3615L10.3748 13.5375ZM25.4934 8.09026L26.8753 5.01591L26.9634 4.74319L26.9385 5.02758L27.0839 9.13594C27.5685 9.18116 28.0692 9.24824 28.5627 9.32991L28.338 3.24539C27.6478 3.16956 26.9605 3.11559 26.2732 3.08643L24.9119 6.44225L24.8634 6.69164L24.815 6.44225L23.4551 3.08643C22.7678 3.11559 22.0805 3.16956 21.3903 3.24539L21.1656 9.32991C21.6591 9.24824 22.1598 9.18261 22.6445 9.13594L22.7898 5.02758L22.7649 4.74319L22.853 5.01591L24.2349 8.09026H25.4934H25.4934ZM36.9701 14.4504C37.3093 14.8121 37.7983 15.3955 38.0729 15.7499L43.1306 12.5618C42.878 12.2336 42.4756 11.7348 42.1746 11.3834L38.9717 13.4864L38.7529 13.6731L38.9159 13.4368L40.3301 10.6337L39.33 9.64056L36.506 11.045L36.2681 11.2069L36.4575 10.9896L38.5766 7.81024C38.2036 7.49522 37.8453 7.20646 37.3886 6.85644L34.1784 11.8749C34.5852 12.1855 35.1212 12.642 35.4633 12.9526L38.4856 11.395L38.6794 11.2536L38.537 11.4461L36.9701 14.4504Z" fill="#C9D6DF"/>
</g>
<defs>
<clipPath id="clip0_4_3">
<rect width="50" height="50" fill="white"/>
</clipPath>
</defs>
</svg>
